<svg width="425" height="437" viewBox="0 0 425 437" fill="none" xmlns="http://www.w3.org/2000/svg">
<g clip-path="url(#clip0_1599_4510)">
<path d="M267.5 327.13H178.93C178.42 327.13 177.93 327.3 177.52 327.61L156.48 344.05H245.05C245.56 344.05 246.05 343.88 246.46 343.57L267.5 327.13Z" fill="black"/>
<path d="M245.84 433.41L266.62 417.17C267.17 416.74 267.5 416.07 267.5 415.37V331.81C267.5 329.91 265.31 328.84 263.81 330.01L246.72 343.36C246.17 343.79 245.84 344.46 245.84 345.16V433.41Z" fill="#FF8000"/>
<path d="M244.839 433.41H157.479C156.929 433.41 156.479 432.96 156.479 432.41V345.05C156.479 344.5 156.929 344.05 157.479 344.05H244.839C245.389 344.05 245.839 344.5 245.839 345.05V432.41C245.839 432.96 245.389 433.41 244.839 433.41Z" fill="#D9F0FF"/>
<path d="M243.259 437.28H159.069C155.509 437.28 152.619 434.39 152.619 430.83V346.64C152.619 343.08 155.509 340.19 159.069 340.19H243.259C246.819 340.19 249.709 343.08 249.709 346.64V430.83C249.709 434.39 246.819 437.28 243.259 437.28ZM160.359 429.54H241.969V347.93H160.359V429.54Z" fill="black"/>
<path d="M158.12 347.93C156.92 347.93 155.74 347.37 154.98 346.33C153.73 344.6 154.12 342.18 155.85 340.92L175.31 326.85C176.37 326.08 177.64 325.66 178.99 325.66H265.08C267.22 325.66 268.95 327.39 268.95 329.53C268.95 331.67 267.22 333.4 265.08 333.4H179.46L160.39 347.19C159.7 347.69 158.9 347.93 158.12 347.93ZM179.86 333.11L179.84 333.12C179.85 333.11 179.85 333.11 179.86 333.11Z" fill="black"/>
<path d="M245.05 347.93H157.35V340.19H244.5L262.68 325.99L267.45 332.09L248.84 346.63C247.77 347.46 246.43 347.93 245.05 347.93Z" fill="black"/>
<path d="M245.571 436.35C244.371 436.35 243.191 435.8 242.431 434.75C241.621 433.64 241.491 432.23 241.971 431.04V345.17C241.971 343.26 242.831 341.49 244.341 340.32L261.431 326.97C263.301 325.51 265.791 325.25 267.931 326.29C270.061 327.33 271.381 329.45 271.381 331.82V415.38C271.381 417.27 270.491 419.08 269.011 420.24L247.851 435.62C247.151 436.11 246.361 436.35 245.571 436.35ZM249.711 345.95V424.68L263.631 414.57V335.08L249.711 345.95Z" fill="black"/>
<path d="M421.11 327.13H332.54C332.03 327.13 331.54 327.3 331.13 327.61L310.09 344.05H398.66C399.17 344.05 399.66 343.88 400.07 343.57L421.11 327.13Z" fill="black"/>
<path d="M399.449 433.41L420.229 417.17C420.779 416.74 421.109 416.07 421.109 415.37V331.81C421.109 329.91 418.919 328.84 417.419 330.01L400.329 343.36C399.779 343.79 399.449 344.46 399.449 345.16V433.41Z" fill="#FF8000"/>
<path d="M398.45 433.41H311.09C310.54 433.41 310.09 432.96 310.09 432.41V345.05C310.09 344.5 310.54 344.05 311.09 344.05H398.45C399 344.05 399.45 344.5 399.45 345.05V432.41C399.45 432.96 399 433.41 398.45 433.41Z" fill="#D9F0FF"/>
<path d="M396.861 437.28H312.671C309.111 437.28 306.221 434.39 306.221 430.83V346.64C306.221 343.08 309.111 340.19 312.671 340.19H396.861C400.421 340.19 403.311 343.08 403.311 346.64V430.83C403.321 434.39 400.421 437.28 396.861 437.28ZM313.961 429.54H395.571V347.93H313.961V429.54Z" fill="black"/>
<path d="M311.72 347.93C310.52 347.93 309.34 347.37 308.58 346.33C307.33 344.6 307.72 342.18 309.45 340.92L328.91 326.85C329.94 326.09 331.26 325.66 332.59 325.66H418.68C420.82 325.66 422.55 327.39 422.55 329.53C422.55 331.67 420.82 333.4 418.68 333.4H333.06L313.99 347.19C313.3 347.69 312.51 347.93 311.72 347.93ZM333.47 333.1L333.45 333.12C333.46 333.11 333.46 333.11 333.47 333.1Z" fill="black"/>
<path d="M398.661 347.93H310.961V340.19H398.111L416.281 325.99L421.051 332.09L402.441 346.63C401.381 347.46 400.031 347.93 398.661 347.93Z" fill="black"/>
<path d="M399.17 436.35C397.97 436.35 396.79 435.8 396.03 434.75C395.22 433.64 395.09 432.23 395.57 431.04V345.17C395.57 343.27 396.43 341.5 397.93 340.32L415.03 326.96C416.9 325.5 419.39 325.24 421.52 326.28C423.65 327.32 424.97 329.44 424.97 331.81V415.37C424.97 417.26 424.08 419.07 422.6 420.23L401.44 435.61C400.76 436.11 399.96 436.35 399.17 436.35ZM403.32 345.94V424.67L417.24 414.56V335.07L403.32 345.94Z" fill="black"/>
<path d="M114.719 327.13H26.1492C25.6392 327.13 25.1492 327.3 24.7392 327.61L3.69922 344.05H92.2692C92.7792 344.05 93.2692 343.88 93.6792 343.57L114.719 327.13Z" fill="black"/>
<path d="M93.0605 433.41L113.841 417.17C114.391 416.74 114.721 416.07 114.721 415.37V331.81C114.721 329.91 112.531 328.84 111.031 330.01L93.9406 343.36C93.3906 343.79 93.0605 344.46 93.0605 345.16V433.41Z" fill="#FF8000"/>
<path d="M92.0592 433.41H4.69922C4.14922 433.41 3.69922 432.96 3.69922 432.41V345.05C3.69922 344.5 4.14922 344.05 4.69922 344.05H92.0592C92.6092 344.05 93.0592 344.5 93.0592 345.05V432.41C93.0592 432.96 92.6092 433.41 92.0592 433.41Z" fill="#D9F0FF"/>
<path d="M90.4799 437.28H6.28984C2.72984 437.28 -0.160156 434.39 -0.160156 430.83V346.64C-0.160156 343.08 2.72984 340.19 6.28984 340.19H90.4799C94.0399 340.19 96.9298 343.08 96.9298 346.64V430.83C96.9298 434.39 94.0399 437.28 90.4799 437.28ZM7.57985 429.54H89.1898V347.93H7.57985V429.54Z" fill="black"/>
<path d="M5.32913 347.93C4.12913 347.93 2.94913 347.37 2.18913 346.33C0.93913 344.6 1.32912 342.18 3.05912 340.92L22.5191 326.85C23.5591 326.09 24.8691 325.66 26.1991 325.66H112.289C114.429 325.66 116.159 327.39 116.159 329.53C116.159 331.67 114.429 333.4 112.289 333.4H26.6691L7.59913 347.19C6.90913 347.69 6.11913 347.93 5.32913 347.93ZM27.0691 333.11L27.0491 333.12C27.0591 333.11 27.0691 333.11 27.0691 333.11Z" fill="black"/>
<path d="M92.2703 347.93H4.57031V340.19H91.7203L109.9 325.99L114.67 332.09L96.0603 346.63C94.9903 347.46 93.6403 347.93 92.2703 347.93Z" fill="black"/>
<path d="M92.7795 436.35C91.5795 436.35 90.3996 435.8 89.6396 434.75C88.8296 433.63 88.6995 432.23 89.1795 431.03V345.16C89.1795 343.25 90.0396 341.48 91.5396 340.31L108.63 326.96C110.51 325.5 112.99 325.24 115.12 326.28C117.25 327.32 118.57 329.44 118.57 331.81V415.37C118.57 417.26 117.68 419.07 116.2 420.23L95.3496 435.39C95.3296 435.41 95.3096 435.42 95.2896 435.43L95.0396 435.61C94.3696 436.11 93.5695 436.35 92.7795 436.35ZM96.9295 345.94V424.67L110.85 414.56V335.07L96.9295 345.94Z" fill="black"/>
<path d="M226.68 305.39V340.08H199.26V305.39H73.1698V340.08H45.7598V277.97H199.26V230.11H226.68V277.97H380.33V340.08H352.92V305.39H226.68Z" fill="white"/>
<path d="M380.33 343.95H352.92C350.78 343.95 349.05 342.22 349.05 340.08V309.26H230.55V340.08C230.55 342.22 228.82 343.95 226.68 343.95H199.27C197.13 343.95 195.4 342.22 195.4 340.08V309.26H77.0504V340.08C77.0504 342.22 75.3204 343.95 73.1804 343.95H45.7704C43.6304 343.95 41.9004 342.22 41.9004 340.08V277.97C41.9004 275.83 43.6304 274.1 45.7704 274.1H195.4V230.11C195.4 227.97 197.13 226.24 199.27 226.24H226.68C228.82 226.24 230.55 227.97 230.55 230.11V274.1H380.33C382.47 274.1 384.2 275.83 384.2 277.97V340.08C384.21 342.22 382.47 343.95 380.33 343.95ZM356.79 336.21H376.46V281.84H226.68C224.54 281.84 222.81 280.11 222.81 277.97V233.98H203.14V277.97C203.14 280.11 201.41 281.84 199.27 281.84H49.6304V336.21H69.3004V305.39C69.3004 303.25 71.0304 301.52 73.1704 301.52H199.26C201.4 301.52 203.13 303.25 203.13 305.39V336.21H222.8V305.39C222.8 303.25 224.53 301.52 226.67 301.52H352.91C355.05 301.52 356.78 303.25 356.78 305.39V336.21H356.79Z" fill="black"/>
<path d="M116.99 91.67L96.8301 76.76C95.8201 76.01 95.6001 74.58 96.3501 73.57L128.87 29.45C129.62 28.43 131.05 28.22 132.06 28.97L154.97 45.86C163.41 39.95 172.8 35.3 182.85 32.17L183.24 6.25C183.26 5 184.28 4 185.52 4H240.37C241.63 4 242.65 5.02 242.65 6.28L242.75 32.08C253.09 35.26 262.73 40.05 271.37 46.17L271.48 46.26L294.92 28.98C295.94 28.23 297.37 28.45 298.11 29.46L330.63 73.58C331.38 74.6 331.16 76.03 330.15 76.77L307.77 93.27C311.54 103.06 313.55 112.83 314.09 123.81L340.82 130.72C342.04 131.04 342.78 132.28 342.46 133.5L328.74 186.57C328.42 187.79 327.18 188.53 325.96 188.21L299.56 181.38C293.77 190.91 286.45 199.41 277.94 206.53L287.89 231.26C288.36 232.43 287.79 233.76 286.62 234.23L235.77 254.67C234.6 255.14 233.27 254.57 232.8 253.4L223.77 230.93L223.24 229.6C219.86 229.94 216.44 230.11 212.97 230.11C209.19 230.11 205.45 229.9 201.78 229.5L192.17 253.4C191.7 254.57 190.37 255.14 189.2 254.67L138.34 234.23C137.17 233.76 136.6 232.43 137.07 231.26L147.26 205.91C140.28 199.9 130.2 186.52 127.15 182.39C126.6 181.64 125.65 181.31 124.75 181.55L99.0101 188.2C97.7901 188.52 96.5401 187.78 96.2301 186.56L82.5101 133.49C82.1901 132.27 82.9301 131.02 84.1501 130.71L110.07 124.01C111.02 123.76 111.69 122.93 111.76 121.95C112.43 112.29 114.58 103.01 117.77 94.29C118.12 93.33 117.81 92.27 116.99 91.67Z" fill="#D9F0FF"/>
<path d="M234.93 258.7C234.11 258.7 233.29 258.53 232.51 258.2C231 257.55 229.82 256.36 229.21 254.83L220.71 233.69C215.25 234.09 209.73 234.06 204.28 233.62L195.75 254.83C195.14 256.36 193.97 257.55 192.45 258.2C190.93 258.85 189.26 258.87 187.74 258.25L136.89 237.81C135.36 237.2 134.17 236.03 133.52 234.51C132.87 233 132.86 231.32 133.47 229.8L142.65 206.94C136.23 200.76 128.46 190.66 124.66 185.55L99.9599 191.94C96.6899 192.8 93.3199 190.81 92.4599 187.53L78.7399 134.46C77.8899 131.17 79.8699 127.81 83.1599 126.96L107.97 120.55C108.68 111.76 110.61 102.86 113.72 94.0801L94.5199 79.8801C91.7899 77.8601 91.21 74.0001 93.23 71.2801L125.75 27.1601C127.76 24.4301 131.63 23.8501 134.36 25.8601L155.07 41.1201C162.54 36.1801 170.58 32.2301 179.03 29.3501L179.37 6.19012C179.43 2.84012 182.19 0.120117 185.53 0.120117H240.38C243.76 0.120117 246.52 2.87011 246.54 6.25011L246.63 29.2401C255.4 32.2001 263.72 36.3101 271.43 41.4801L292.64 25.8501C295.37 23.8401 299.23 24.4201 301.24 27.1501L333.76 71.2801C334.74 72.6001 335.14 74.2301 334.89 75.8501C334.64 77.4801 333.78 78.9101 332.45 79.8801L312.41 94.6501C315.37 103.05 317.1 111.47 317.78 120.75L341.78 126.95C345.07 127.8 347.05 131.17 346.2 134.45L332.48 187.52C331.62 190.82 328.25 192.78 324.97 191.94L301.32 185.83C296.09 193.93 289.8 201.25 282.56 207.65L291.48 229.81C292.75 232.95 291.22 236.55 288.07 237.82L237.21 258.26C236.48 258.56 235.71 258.7 234.93 258.7ZM141.26 231.22L189.17 250.48L199.28 225.33L202.2 225.65C208.99 226.4 216.03 226.43 222.85 225.74L225.74 225.45L235.8 250.48L283.71 231.22L273.3 205.35L275.46 203.54C283.69 196.64 290.69 188.5 296.25 179.35L297.75 176.89L325.4 184.04L338.32 134.05L310.37 126.82L310.23 123.97C309.71 113.35 307.78 104.03 304.17 94.6301L303.11 91.8701L326.59 74.5601L295.96 33.0001L271.35 51.1301L269.02 49.1901C260.73 43.3201 251.47 38.7701 241.63 35.7401L238.9 34.9001L238.8 7.83012H187.1L186.69 35.0001L184.01 35.8301C174.45 38.8001 165.44 43.2301 157.2 48.9901L154.92 50.5901L131.04 33.0001L100.4 74.5701L119.29 88.5401C121.5 90.1701 122.34 93.0101 121.4 95.6001C118.17 104.44 116.22 113.39 115.62 122.2C115.44 124.85 113.6 127.07 111.04 127.74L86.6599 134.04L99.5799 184.03L123.78 177.78C126.22 177.15 128.78 178.05 130.27 180.07C133.16 183.98 143.11 197.2 149.79 202.95L151.89 204.76L141.26 231.22Z" fill="black"/>
<path d="M212.97 193.74C248.808 193.74 277.86 164.688 277.86 128.85C277.86 93.0122 248.808 63.96 212.97 63.96C177.132 63.96 148.08 93.0122 148.08 128.85C148.08 164.688 177.132 193.74 212.97 193.74Z" fill="#00CE84"/>
<path d="M212.971 197.61C175.061 197.61 144.211 166.77 144.211 128.85C144.211 90.9299 175.061 60.0898 212.971 60.0898C250.881 60.0898 281.731 90.9399 281.731 128.85C281.731 166.76 250.881 197.61 212.971 197.61ZM212.971 67.8398C179.331 67.8398 151.961 95.2099 151.961 128.85C151.961 162.49 179.331 189.86 212.971 189.86C246.611 189.86 273.981 162.49 273.981 128.85C273.981 95.2099 246.611 67.8398 212.971 67.8398Z" fill="black"/>
<path d="M212.97 171.17C189.64 171.17 170.65 152.19 170.65 128.86C170.65 119.28 173.95 109.89 179.93 102.42C181.27 100.75 183.71 100.48 185.37 101.82C187.04 103.16 187.31 105.59 185.97 107.26C181.01 113.45 178.39 120.91 178.39 128.86C178.39 147.92 193.9 163.43 212.96 163.43C232.02 163.43 247.53 147.92 247.53 128.86C247.53 120.92 244.91 113.45 239.95 107.26C238.61 105.59 238.88 103.16 240.55 101.82C242.22 100.49 244.65 100.75 245.99 102.42C251.97 109.89 255.27 119.28 255.27 128.86C255.29 152.19 236.3 171.17 212.97 171.17Z" fill="black"/>
<path d="M212.489 137.3C210.349 137.3 208.619 135.57 208.619 133.43V91.6498C208.619 89.5098 210.349 87.7798 212.489 87.7798C214.629 87.7798 216.359 89.5098 216.359 91.6498V133.43C216.359 135.56 214.629 137.3 212.489 137.3Z" fill="black"/>
</g>
<defs>
<clipPath id="clip0_1599_4510">
<rect width="425" height="437" fill="white"/>
</clipPath>
</defs>
</svg>
