<svg width="368" height="298" viewBox="0 0 368 298" fill="none" xmlns="http://www.w3.org/2000/svg">
<path d="M52.9954 215.74V251.648C52.9954 253.357 53.6717 254.992 54.8792 256.199L76.8009 278.121C78.0085 279.325 79.6433 280.005 81.3525 280.005H117.26C137.294 290.23 159.97 296 184.002 296C208.034 296 230.714 290.233 250.744 280.005H286.651C288.36 280.005 289.995 279.328 291.199 278.121L313.121 256.199C314.325 254.995 315.005 253.357 315.005 251.648V215.74C325.23 195.714 330.996 173.027 330.996 148.998C330.996 124.97 325.23 102.286 315.005 82.2558V46.345C315.005 44.6396 314.325 43.0048 313.121 41.8009L291.199 19.8792C289.995 18.6754 288.36 17.9954 286.651 17.9954H250.744C230.717 7.77024 208.034 2 184.002 2C159.97 2 137.294 7.76653 117.26 17.9954H81.3525C79.647 17.9954 78.0085 18.6717 76.8009 19.8792L54.8792 41.8009C53.6754 43.0048 52.9954 44.6433 52.9954 46.345V82.2558C42.774 102.283 37 124.966 37 148.998C37 173.03 42.7702 195.71 52.9954 215.74Z" fill="#FF788F"/>
<mask id="mask0_8170_90065" style="mask-type:luminance" maskUnits="userSpaceOnUse" x="37" y="2" width="294" height="294">
<path d="M52.9954 215.74V251.648C52.9954 253.357 53.6717 254.992 54.8792 256.199L76.8009 278.121C78.0085 279.325 79.6433 280.005 81.3525 280.005H117.26C137.294 290.23 159.97 296 184.002 296C208.034 296 230.714 290.233 250.744 280.005H286.651C288.36 280.005 289.995 279.328 291.199 278.121L313.121 256.199C314.325 254.995 315.005 253.357 315.005 251.648V215.74C325.23 195.714 330.996 173.027 330.996 148.998C330.996 124.97 325.23 102.286 315.005 82.2558V46.345C315.005 44.6396 314.325 43.0048 313.121 41.8009L291.199 19.8792C289.995 18.6754 288.36 17.9954 286.651 17.9954H250.744C230.717 7.77024 208.034 2 184.002 2C159.97 2 137.294 7.76653 117.26 17.9954H81.3525C79.647 17.9954 78.0085 18.6717 76.8009 19.8792L54.8792 41.8009C53.6754 43.0048 52.9954 44.6433 52.9954 46.345V82.2558C42.774 102.283 37 124.966 37 148.998C37 173.03 42.7702 195.71 52.9954 215.74Z" fill="white"/>
</mask>
<g mask="url(#mask0_8170_90065)">
<path d="M332.315 142.693C332.315 142.693 332.326 142.656 332.334 142.637L335.681 133.007L330.179 135.645L283.545 49.9678C282.538 48.1175 280.327 47.2815 278.347 47.9986L161.367 90.4226C158.914 91.3107 157.829 94.1754 159.078 96.4678L207.61 185.63C208.617 187.48 210.828 188.316 212.808 187.599L329.789 145.175C331.007 144.733 331.892 143.8 332.315 142.693Z" fill="black" stroke="black" stroke-width="1.2" stroke-linecap="round" stroke-linejoin="round"/>
<path d="M330.989 187.859C323.781 209.666 317.899 218.163 317.899 218.163L320.347 255.779L297.883 279.607L286.521 291.668L271.666 297.051C269.686 297.769 267.479 296.929 266.468 295.082L217.94 205.917C216.691 203.628 217.772 200.763 220.228 199.875L222.357 199.102L336.127 157.837C335.908 165.536 334.775 176.382 330.985 187.855L330.989 187.859Z" fill="black" stroke="black" stroke-width="1.2" stroke-linecap="round" stroke-linejoin="round"/>
<path d="M271.986 31.6243C271.997 31.5983 272.005 31.5685 272.016 31.5425L275.196 22.4729L269.537 23.974L264.455 14.6368L250.38 13.6336C250.38 13.6336 234.682 4.32988 204.274 -0.426021C173.858 -5.1782 142.793 1.16423 132.003 8.30923C128.373 10.7095 125.006 12.322 122.131 13.4032C119.151 14.5216 116.706 15.0715 115.052 15.3465L147.281 74.5537C148.292 76.4078 150.499 77.24 152.479 76.5229L269.459 34.1025C270.671 33.6641 271.551 32.7389 271.979 31.6391L271.982 31.628L271.986 31.6243Z" fill="black" stroke="black" stroke-width="1.2" stroke-linecap="round" stroke-linejoin="round"/>
<path d="M332.977 136.087L215.996 178.511C214.016 179.228 211.805 178.392 210.798 176.541L162.266 87.3795C161.017 85.087 162.102 82.226 164.555 81.3343L281.535 38.9102C283.515 38.1931 285.726 39.0291 286.733 40.8794L335.265 130.041C336.514 132.334 335.429 135.195 332.977 136.087Z" fill="#FF788F" stroke="black" stroke-width="1.2" stroke-linecap="round" stroke-linejoin="round"/>
<path d="M336.131 157.841C335.912 165.54 334.779 176.386 330.989 187.859C323.781 209.666 317.899 218.163 317.899 218.163L320.347 255.779L297.883 279.607L274.858 287.96C272.878 288.677 270.663 287.844 269.66 285.99L222.361 199.106L221.124 196.832C219.875 194.543 220.964 191.679 223.413 190.783L336.049 149.935C336.15 151.878 336.22 154.575 336.127 157.841H336.131Z" fill="#FF788F" stroke="black" stroke-width="1.2" stroke-linecap="round" stroke-linejoin="round"/>
<path d="M314.009 203.223C308.629 191.839 295.966 183.843 281.204 183.843C278.919 183.843 276.686 184.036 274.524 184.404C258.075 187.179 245.632 200.031 245.632 215.466C245.632 229.979 256.633 242.207 271.626 245.926C274.672 246.68 277.89 247.085 281.204 247.085C300.848 247.085 316.777 232.933 316.777 215.466C316.777 211.122 315.796 206.983 314.005 203.223H314.009ZM281.204 230.581C279.614 230.581 278.068 230.387 276.612 230.02C269.448 228.244 264.198 222.399 264.198 215.469C264.198 208.087 270.15 201.941 278.02 200.622C279.053 200.444 280.116 200.351 281.204 200.351C288.241 200.351 294.283 204.152 296.869 209.573C297.731 211.382 298.21 213.374 298.21 215.473C298.21 223.815 290.597 230.588 281.204 230.588V230.581Z" fill="white" stroke="white" stroke-width="1.2" stroke-linecap="round" stroke-linejoin="round"/>
<path d="M272.647 25.0069L270.518 25.7797L155.675 67.4347C153.694 68.1518 151.48 67.3121 150.476 65.4655L122.134 13.4032C125.01 12.322 128.376 10.7095 132.006 8.30923C142.793 1.16423 173.858 -5.1782 204.266 -0.426022C234.674 4.32988 250.373 13.6336 250.373 13.6336L264.447 14.6368L272.907 15.2424L274.932 18.9617C276.181 21.2505 275.1 24.1152 272.644 25.0032L272.647 25.0069Z" fill="#FF788F" stroke="black" stroke-width="1.2" stroke-linecap="round" stroke-linejoin="round"/>
<path d="M247.839 229.525L242.105 231.253L195.791 146.167C194.784 144.317 192.574 143.481 190.593 144.198L78.1942 184.961L74.2037 180.224L71.1161 189.037C71.0715 189.145 71.0343 189.256 71.0009 189.368V189.375C70.6739 190.427 70.7482 191.608 71.3241 192.671L119.857 281.833C120.863 283.683 123.074 284.519 125.055 283.802L242.035 241.378C243.562 240.824 244.561 239.502 244.792 238.03L247.839 229.525Z" fill="#FF788F" stroke="black" stroke-width="1.2" stroke-linecap="round" stroke-linejoin="round"/>
<path d="M187.316 118.962C187.316 118.962 187.312 118.977 187.305 118.984L184.247 127.764C183.835 128.893 182.947 129.848 181.702 130.302L64.7216 172.722C62.7412 173.439 60.5341 172.607 59.5235 170.753L34.9377 125.583C35.3279 122.454 35.9261 118.516 36.8252 114.102C39.0471 103.238 48.2914 81 48.2914 81V62.8533L130.268 33.1289C132.248 32.4118 134.455 33.2441 135.466 35.0982L181.691 120.021C184.819 119.43 187.32 118.965 187.32 118.965L187.316 118.962Z" fill="#FF788F" stroke="black" stroke-width="1.2" stroke-linecap="round" stroke-linejoin="round"/>
<path d="M245.223 232.286L128.243 274.71C126.262 275.427 124.052 274.591 123.045 272.741L74.5122 183.579C73.2637 181.286 74.3487 178.425 76.8009 177.533L193.781 135.109C195.762 134.392 197.972 135.228 198.979 137.079L247.512 226.241C248.76 228.533 247.675 231.394 245.223 232.286Z" fill="white" stroke="black" stroke-width="1.2" stroke-linecap="round" stroke-linejoin="round"/>
<path d="M281.204 289.461C276.612 287.276 270.526 285.039 263.451 284.055C247.426 281.825 234.024 301.388 200.67 305.315C173.394 308.522 144.149 298.627 134.399 294.915L133.374 293.035C132.125 290.746 133.207 287.882 135.663 286.986L252.643 244.566C254.623 243.849 256.83 244.681 257.834 246.535L281.201 289.465L281.204 289.461Z" fill="white" stroke="black" stroke-width="1.2" stroke-linecap="round" stroke-linejoin="round"/>
<path d="M187.316 118.961C187.316 118.961 187.312 118.976 187.305 118.984C186.852 119.976 186.019 120.801 184.894 121.206L67.9134 163.634C65.933 164.351 63.726 163.511 62.7154 161.664L36.8254 114.102C39.0473 103.237 48.2916 80.9998 48.2916 80.9998V54.9204L133.456 24.0293C135.436 23.3122 137.643 24.1519 138.646 25.9986L187.182 115.164C187.855 116.394 187.851 117.795 187.316 118.961Z" fill="white" stroke="black" stroke-width="1.2" stroke-linecap="round" stroke-linejoin="round"/>
<path d="M65.0525 163.645L62.2695 172.96L64.7255 172.722L182.806 129.699L184.247 127.764L186.744 119.887L67.9134 163.634L65.0525 163.645Z" fill="black"/>
<path d="M63.8968 163.032L60.9355 172.28L59.5273 170.753L62.4552 161.189L63.8968 163.032Z" fill="black"/>
<path d="M125.995 274.892L123.164 284.036L125.051 283.802L242.923 240.928C242.923 240.928 244.354 239.68 244.569 238.855C244.785 238.03 247.118 230.907 247.118 230.907L245.219 232.286L128.239 274.71L125.991 274.892H125.995Z" fill="black"/>
<path d="M124.683 274.312L121.748 283.586L120.373 282.085L123.308 272.525L124.683 274.312Z" fill="black"/>
<path d="M117.011 96.9841C117.011 115.339 101.442 130.216 82.2368 130.216C63.0311 130.216 47.4556 115.339 47.4556 96.9841C47.4556 80.1007 60.6235 66.1599 77.689 64.0309C79.1752 63.8451 80.6948 63.7485 82.2331 63.7485C90.92 63.7485 98.8601 66.7916 104.961 71.8298C109.331 75.4376 112.753 80.0746 114.815 85.3433C116.23 88.9622 117.007 92.8858 117.007 96.9841H117.011Z" fill="#FF788F" stroke="#FF788F" stroke-width="1.2" stroke-linecap="round" stroke-linejoin="round"/>
<path d="M104.965 71.8264L82.2367 96.9807L77.6926 64.0275C79.1788 63.8417 80.6985 63.7451 82.2367 63.7451C90.9237 63.7451 98.8638 66.7881 104.965 71.8264Z" fill="black" stroke="#FF788F" stroke-width="1.2" stroke-linecap="round" stroke-linejoin="round"/>
<path d="M114.818 85.3435L82.2368 96.9843L104.965 71.8301C109.334 75.4379 112.756 80.0749 114.818 85.3435Z" fill="white" stroke="#FF788F" stroke-width="1.2" stroke-linecap="round" stroke-linejoin="round"/>
<path d="M128.447 249.043L153.148 240.081" stroke="#FF788F" stroke-width="1.2" stroke-linecap="round" stroke-linejoin="round"/>
<path d="M131.022 253.777L176.537 237.269" stroke="#FF788F" stroke-width="1.2" stroke-linecap="round" stroke-linejoin="round"/>
<path d="M133.705 258.51L168.252 245.981" stroke="#FF788F" stroke-width="1.2" stroke-linecap="round" stroke-linejoin="round"/>
<path d="M148.931 124.914L174.802 115.529" stroke="#FF788F" stroke-width="1.2" stroke-linecap="round" stroke-linejoin="round"/>
<path d="M67.1777 149.18L81.7315 143.9" stroke="#FF788F" stroke-width="1.2" stroke-linecap="round" stroke-linejoin="round"/>
<path d="M120.477 234.842C119.686 234.85 118.943 234.37 118.649 233.59C118.274 232.591 118.779 231.48 119.779 231.104L180.97 208.127C181.969 207.752 183.08 208.257 183.456 209.257C183.831 210.256 183.326 211.367 182.326 211.743L121.135 234.72C120.919 234.801 120.696 234.842 120.477 234.842Z" fill="#FF788F"/>
<path d="M124.94 242.441C124.148 242.448 123.405 241.969 123.108 241.188C122.733 240.189 123.238 239.078 124.237 238.703L161.341 224.769C162.34 224.394 163.451 224.9 163.827 225.899C164.202 226.898 163.696 228.009 162.697 228.385L125.594 242.318C125.378 242.4 125.155 242.441 124.936 242.441H124.94Z" fill="#FF788F"/>
<path d="M109.735 44.2865C109.07 44.2865 108.442 43.8815 108.19 43.2238C107.863 42.3693 108.29 41.4144 109.145 41.0874L130.84 32.772C131.694 32.445 132.649 32.8723 132.976 33.7269C133.303 34.5815 132.876 35.5364 132.021 35.8633L110.326 44.1787C110.133 44.253 109.932 44.2902 109.735 44.2902V44.2865Z" fill="#FF788F"/>
<path d="M111.694 48.2141L124.542 43.291" stroke="#FF788F" stroke-width="1.2" stroke-linecap="round" stroke-linejoin="round"/>
<path d="M113.934 52.509L135.154 44.3794" stroke="#FF788F" stroke-width="1.2" stroke-linecap="round" stroke-linejoin="round"/>
<path d="M116.275 56.7784L127.99 52.29" stroke="#FF788F" stroke-width="1.2" stroke-linecap="round" stroke-linejoin="round"/>
<path d="M103.33 47.7422C104.81 47.7422 106.009 46.6776 106.009 45.3643C106.009 44.051 104.81 42.9863 103.33 42.9863C101.851 42.9863 100.651 44.051 100.651 45.3643C100.651 46.6776 101.851 47.7422 103.33 47.7422Z" fill="#FF788F"/>
<path d="M120.21 65.7884C119.544 65.7884 118.917 65.3834 118.664 64.7258C118.337 63.8712 118.764 62.9163 119.619 62.5893L141.314 54.274C142.168 53.947 143.123 54.3743 143.45 55.2289C143.777 56.0834 143.35 57.0383 142.495 57.3653L120.8 65.6807C120.607 65.755 120.406 65.7921 120.21 65.7921V65.7884Z" fill="#FF788F"/>
<path d="M122.168 69.7122L135.02 64.7891" stroke="#FF788F" stroke-width="1.2" stroke-linecap="round" stroke-linejoin="round"/>
<path d="M124.408 74.0075L145.628 65.8779" stroke="#FF788F" stroke-width="1.2" stroke-linecap="round" stroke-linejoin="round"/>
<path d="M126.753 78.2765L138.464 73.7881" stroke="#FF788F" stroke-width="1.2" stroke-linecap="round" stroke-linejoin="round"/>
<path d="M113.804 69.2403C115.284 69.2403 116.483 68.1756 116.483 66.8623C116.483 65.549 115.284 64.4844 113.804 64.4844C112.325 64.4844 111.125 65.549 111.125 66.8623C111.125 68.1756 112.325 69.2403 113.804 69.2403Z" fill="#FF788F"/>
<path d="M136.231 98.6488C135.566 98.6488 134.938 98.2438 134.685 97.5861C134.358 96.7316 134.786 95.7767 135.64 95.4497L157.335 87.1343C158.19 86.8073 159.145 87.2346 159.472 88.0892C159.799 88.9438 159.371 89.8987 158.517 90.2256L136.822 98.541C136.629 98.6153 136.428 98.6525 136.231 98.6525V98.6488Z" fill="#FF788F"/>
<path d="M138.52 102.45L151.041 97.6494" stroke="#FF788F" stroke-width="1.2" stroke-linecap="round" stroke-linejoin="round"/>
<path d="M140.433 106.868L161.649 98.7383" stroke="#FF788F" stroke-width="1.2" stroke-linecap="round" stroke-linejoin="round"/>
<path d="M144.617 115.529L166.442 107.165" stroke="#FF788F" stroke-width="1.2" stroke-linecap="round" stroke-linejoin="round"/>
<path d="M142.774 111.137L154.486 106.648" stroke="#FF788F" stroke-width="1.2" stroke-linecap="round" stroke-linejoin="round"/>
<path d="M146.813 119.961L164.217 113.292" stroke="#FF788F" stroke-width="1.2" stroke-linecap="round" stroke-linejoin="round"/>
<path d="M129.825 102.104C131.305 102.104 132.504 101.039 132.504 99.7261C132.504 98.4128 131.305 97.3481 129.825 97.3481C128.346 97.3481 127.146 98.4128 127.146 99.7261C127.146 101.039 128.346 102.104 129.825 102.104Z" fill="#FF788F"/>
<path d="M247.122 270.433C250.368 270.433 253 268.095 253 265.209C253 262.324 250.368 259.985 247.122 259.985C243.875 259.985 241.244 262.324 241.244 265.209C241.244 268.095 243.875 270.433 247.122 270.433Z" fill="#FF788F"/>
<path d="M224.397 293.44C227.644 293.44 230.275 291.101 230.275 288.216C230.275 285.331 227.644 282.992 224.397 282.992C221.151 282.992 218.519 285.331 218.519 288.216C218.519 291.101 221.151 293.44 224.397 293.44Z" fill="#FF788F"/>
<path d="M185.142 290.661C188.389 290.661 191.02 288.322 191.02 285.437C191.02 282.552 188.389 280.213 185.142 280.213C181.896 280.213 179.264 282.552 179.264 285.437C179.264 288.322 181.896 290.661 185.142 290.661Z" fill="#FF788F"/>
<path d="M123.751 219.631L112.552 223.803L106.763 213.229L117.962 209.056L123.751 219.631Z" fill="#FF788F" stroke="white" stroke-width="1.2" stroke-linecap="round" stroke-linejoin="round"/>
<path d="M191.429 194.417L180.227 198.59L174.438 188.015L185.64 183.843L191.429 194.417Z" fill="#FF788F" stroke="white" stroke-width="1.2" stroke-linecap="round" stroke-linejoin="round"/>
<path d="M134.953 215.458L123.751 219.63L108.573 191.905L119.775 187.732L134.953 215.458Z" fill="#FF788F" stroke="white" stroke-width="1.2" stroke-linecap="round" stroke-linejoin="round"/>
<path d="M146.389 211.196L135.187 215.369L124.17 195.246L135.369 191.069L146.389 211.196Z" fill="#FF788F" stroke="white" stroke-width="1.2" stroke-linecap="round" stroke-linejoin="round"/>
<path d="M157.707 206.979L146.505 211.152L129.751 180.554L140.954 176.382L157.707 206.979Z" fill="#FF788F" stroke="white" stroke-width="1.2" stroke-linecap="round" stroke-linejoin="round"/>
<path d="M169.024 202.762L157.826 206.935L150.235 193.072L161.437 188.899L169.024 202.762Z" fill="#FF788F" stroke="white" stroke-width="1.2" stroke-linecap="round" stroke-linejoin="round"/>
<path d="M180.227 198.59L169.024 202.762L156.882 180.584L168.084 176.412L180.227 198.59Z" fill="#FF788F" stroke="white" stroke-width="1.2" stroke-linecap="round" stroke-linejoin="round"/>
<path d="M202.628 190.245L191.429 194.417L183.838 180.554L195.041 176.382L202.628 190.245Z" fill="#FF788F" stroke="white" stroke-width="1.2" stroke-linecap="round" stroke-linejoin="round"/>
<path d="M213.83 186.072L202.628 190.245L190.486 168.063L201.688 163.89L213.83 186.072Z" fill="#FF788F" stroke="white" stroke-width="1.2" stroke-linecap="round" stroke-linejoin="round"/>
<path d="M247.122 265.209V297.308L224.397 288.216L205.411 302.696L185.143 285.437L175.657 300.57" stroke="#FF788F" stroke-width="1.2" stroke-linecap="round" stroke-linejoin="round"/>
<path d="M185.347 102.926C185.347 102.926 190.043 92.4143 201.16 92.8379C212.277 93.2614 220.778 101.439 227.972 93.8336C235.165 86.2279 237.127 81.4423 245.464 78.2766C253.802 75.111 263.775 83.9391 270.804 80.0155C277.834 76.0919 280.613 71.3137 284.21 69.9427C287.807 68.5716 290.344 69.4262 290.344 69.4262L298.968 85.2656L196.363 123.179L181.735 96.3008C181.735 96.3008 188.156 85.574 203.85 89.0071C219.545 92.4403 222.978 100.652 236.224 96.3008C249.466 91.9498 247.341 77.0319 262.79 73.8849C271.276 72.1571 276.853 74.0298 281.999 75.1927C289.029 76.7793 292.838 74.0075 292.838 74.0075" stroke="white" stroke-width="1.2" stroke-linecap="round" stroke-linejoin="round"/>
<path d="M208.454 146.423L212.931 137.012L233.043 143.945L237.58 130.577L256.34 134.853L261.95 123.179L276.775 128.622V116.625L285.771 123.179L289.449 115.529L293.863 121.871L295.58 116.625H298.976L301.22 106.648L311.943 110.137L320.567 125.977L217.962 163.89L203.334 137.012L218.816 145.168L225.196 134.853L231.081 137.32L234.024 124.914L251.435 136.83L255.849 124.914L269.582 139.527L268.556 119.3L285.035 130.64L293.127 113.292L314.469 114.778" stroke="white" stroke-width="1.2" stroke-linecap="round" stroke-linejoin="round"/>
<path d="M69.812 154.073L95.6871 144.688" stroke="#FF788F" stroke-width="1.2" stroke-linecap="round" stroke-linejoin="round"/>
<path d="M199.117 128.633L218.542 121.455" stroke="white" stroke-width="1.2" stroke-linecap="round" stroke-linejoin="round"/>
<path d="M237.168 114.57L222.584 119.961" stroke="white" stroke-width="1.2" stroke-linecap="round" stroke-linejoin="round"/>
<path d="M220.882 169.029L238.721 162.438" stroke="white" stroke-width="1.2" stroke-linecap="round" stroke-linejoin="round"/>
<path d="M278.388 263.281L311.553 251.023" stroke="white" stroke-width="1.2" stroke-linecap="round" stroke-linejoin="round"/>
<path d="M281.795 270.11L299.425 263.593" stroke="white" stroke-width="1.2" stroke-linecap="round" stroke-linejoin="round"/>
<path d="M250.54 158.072L242.57 161.014" stroke="white" stroke-width="1.2" stroke-linecap="round" stroke-linejoin="round"/>
<path d="M134.894 6.65547L160.393 53.397L261.95 16.9067L248.768 -2.07234L148.931 -4.52832L134.894 6.65547Z" stroke="white" stroke-width="1.2" stroke-linecap="round" stroke-linejoin="round"/>
<path d="M151.041 36.2536L251.041 1.20117" stroke="white" stroke-width="1.2" stroke-linecap="round" stroke-linejoin="round"/>
<path d="M142.417 19.088L207.529 -3.08643" stroke="white" stroke-width="1.2" stroke-linecap="round" stroke-linejoin="round"/>
<path d="M152.275 -4.52832L179.948 46.3709" stroke="white" stroke-width="1.2" stroke-linecap="round" stroke-linejoin="round"/>
<path d="M176.656 -3.84814L200.034 39.1556" stroke="white" stroke-width="1.2" stroke-linecap="round" stroke-linejoin="round"/>
<path d="M201.814 -3.61035L220.797 31.3046" stroke="white" stroke-width="1.2" stroke-linecap="round" stroke-linejoin="round"/>
<path d="M225.776 -2.63721L240.578 24.5866" stroke="white" stroke-width="1.2" stroke-linecap="round" stroke-linejoin="round"/>
<path d="M316.777 215.465C316.777 232.929 300.848 247.085 281.204 247.085C277.886 247.085 274.672 246.684 271.625 245.926L276.615 230.016C278.072 230.387 279.618 230.577 281.208 230.577C290.601 230.577 298.214 223.807 298.214 215.462C298.214 213.366 297.735 211.375 296.873 209.561L314.012 203.215C315.8 206.979 316.784 211.118 316.784 215.458L316.777 215.465Z" fill="#FF788F" stroke="white" stroke-width="1.2" stroke-linecap="round" stroke-linejoin="round"/>
<path d="M314.009 203.223L296.869 209.569C294.279 204.152 288.238 200.347 281.204 200.347C280.116 200.347 279.053 200.44 278.02 200.618L274.52 184.407C276.682 184.039 278.919 183.846 281.201 183.846C295.962 183.846 308.625 191.842 314.005 203.226L314.009 203.223Z" fill="black" stroke="white" stroke-width="1.2" stroke-linecap="round" stroke-linejoin="round"/>
<path d="M343.67 173.454C341.337 168.516 335.841 165.046 329.439 165.046C328.447 165.046 327.478 165.131 326.541 165.291C319.407 166.495 314.009 172.068 314.009 178.764C314.009 185.058 318.783 190.364 325.285 191.976C326.608 192.303 328.002 192.478 329.439 192.478C337.959 192.478 344.87 186.34 344.87 178.764C344.87 176.88 344.443 175.085 343.67 173.45V173.454ZM329.439 185.322C328.748 185.322 328.08 185.236 327.448 185.076C324.342 184.307 322.06 181.77 322.06 178.764C322.06 175.561 324.643 172.893 328.057 172.321C328.503 172.243 328.968 172.202 329.439 172.202C332.49 172.202 335.113 173.852 336.235 176.204C336.61 176.988 336.819 177.853 336.819 178.764C336.819 182.383 333.515 185.322 329.439 185.322Z" fill="white" stroke="white" stroke-width="1.2" stroke-linecap="round" stroke-linejoin="round"/>
<path d="M343.67 173.454L336.235 176.207C335.113 173.855 332.49 172.206 329.439 172.206C328.968 172.206 328.507 172.247 328.057 172.325L326.541 165.291C327.481 165.131 328.447 165.046 329.439 165.046C335.841 165.046 341.337 168.516 343.67 173.454Z" fill="black" stroke="white" stroke-width="1.2" stroke-linecap="round" stroke-linejoin="round"/>
</g>
<path d="M52.9954 215.74V251.648C52.9954 253.357 53.6717 254.992 54.8792 256.199L76.8009 278.121C78.0085 279.325 79.6433 280.005 81.3525 280.005H117.26C137.294 290.23 159.97 296 184.002 296C208.034 296 230.714 290.233 250.744 280.005H286.651C288.36 280.005 289.995 279.328 291.199 278.121L313.121 256.199C314.325 254.995 315.005 253.357 315.005 251.648V215.74C325.23 195.714 330.996 173.027 330.996 148.998C330.996 124.97 325.23 102.286 315.005 82.2558V46.345C315.005 44.6396 314.325 43.0048 313.121 41.8009L291.199 19.8792C289.995 18.6754 288.36 17.9954 286.651 17.9954H250.744C230.717 7.77024 208.034 2 184.002 2C159.97 2 137.294 7.76653 117.26 17.9954H81.3525C79.647 17.9954 78.0085 18.6717 76.8009 19.8792L54.8792 41.8009C53.6754 43.0048 52.9954 44.6433 52.9954 46.345V82.2558C42.774 102.283 37 124.966 37 148.998C37 173.03 42.7702 195.71 52.9954 215.74Z" stroke="white" stroke-width="2" stroke-linecap="round" stroke-linejoin="round"/>
</svg>
